<svg xmlns="http://www.w3.org/2000/svg" viewBox="0 0 128 128" shape-rendering="crispEdges"><rect width="128" height="128" fill="#07050f" rx="24"/><rect x="50" y="36" width="28" height="4" fill="#c4b5fd"/><rect x="46" y="40" width="4" height="4" fill="#a78bfa"/><rect x="78" y="40" width="4" height="4" fill="#a78bfa"/><rect x="42" y="44" width="44" height="4" fill="#e8deff"/><rect x="42" y="48" width="4" height="8" fill="#a78bfa"/><rect x="82" y="48" width="4" height="8" fill="#a78bfa"/><rect x="46" y="48" width="36" height="8" fill="#e8deff"/><rect x="50" y="50" width="6" height="6" fill="#1a1035"/><rect x="72" y="50" width="6" height="6" fill="#1a1035"/><rect x="52" y="51" width="2" height="2" fill="#e8deff"/><rect x="74" y="51" width="2" height="2" fill="#e8deff"/><rect x="42" y="56" width="44" height="8" fill="#e8deff"/><rect x="56" y="58" width="16" height="4" fill="#7c3aed"/><rect x="44" y="64" width="40" height="28" fill="#d4c2f0"/><rect x="42" y="64" width="2" height="28" fill="#a78bfa"/><rect x="84" y="64" width="2" height="28" fill="#8b6ce0"/><rect x="40" y="92" width="8" height="8" fill="#a78bfa"/><rect x="48" y="96" width="8" height="8" fill="#c4b5fd"/><rect x="56" y="92" width="8" height="8" fill="#a78bfa"/><rect x="64" y="96" width="8" height="8" fill="#c4b5fd"/><rect x="72" y="92" width="8" height="8" fill="#a78bfa"/><rect x="80" y="96" width="8" height="8" fill="#c4b5fd"/></svg>
